<?xml version="1.0" encoding="iso-8859-1"?>
<!-- Generator: Adobe Illustrator 16.0.0, SVG Export Plug-In . SVG Version: 6.00 Build 0)  -->
<!DOCTYPE svg PUBLIC "-//W3C//DTD SVG 1.1//EN" "http://www.w3.org/Graphics/SVG/1.1/DTD/svg11.dtd">
<svg version="1.1" id="Layer_1" xmlns="http://www.w3.org/2000/svg" xmlns:xlink="http://www.w3.org/1999/xlink" x="0px" y="0px"
	 width="200px" height="250px" viewBox="0 0 200 250" style="enable-background:new 0 0 200 250;" xml:space="preserve">
<g>
	<g>
		<path style="fill:#231F20;" d="M37.584,107.309c14.344,10.636,27.178,11.522,35.866,11.947c7.824,0,11.957-1.948,11.957-5.859
			c0-3.046-3.257-4.567-10.434-5.222c-18.912-0.657-40.432-8.054-40.432-30c0-29.556,28.475-40.421,56.299-40.421
			c17.389,0,32.608,5.202,41.518,13.041l-21.086,23.895c-5.221-3.682-17.168-6.513-25.866-6.513c-6.301,0-10.434,1.523-10.434,5.876
			c0,1.736,1.301,4.335,7.177,4.567c20.432,0.635,43.688,6.069,43.688,29.768c0,30.423-28.476,42.174-56.953,42.174
			c-18.69,0-38.903-5.219-49.557-14.14L37.584,107.309z"/>
		<path style="fill:#231F20;" d="M136.76,132.741c0-10.868,9.344-22.62,25.223-22.62c12.6,0,18.689,7.399,18.689,16.088
			c0,10.655-8.916,23.257-25.648,23.257C142.627,149.466,136.76,141.642,136.76,132.741z"/>
	</g>
	<g>
		<path style="fill:#D03C27;" d="M27.061,185.515c4.044,0,5.841,2.72,5.841,5.791s-1.729,5.959-5.841,5.959
			c-1.477,0-3.341,0-4.817,0v-11.75H27.061z M24.829,194.848h2.232c2.551,0,3.255-1.88,3.255-3.574c0-1.696-0.806-3.391-3.255-3.391
			h-2.232V194.848z"/>
		<path style="fill:#D03C27;" d="M36.805,193.908c0.117,0.806,0.89,1.46,2.25,1.46c0.654,0,1.561-0.151,2.148-0.654l1.358,1.511
			c-0.889,0.871-2.315,1.226-3.557,1.226c-3.005,0-4.649-1.763-4.649-4.416c0-2.518,1.695-4.279,4.396-4.279
			c2.82,0,4.667,1.762,4.146,5.153H36.805z M40.733,192.146c-0.051-0.906-0.974-1.326-1.981-1.326c-0.973,0-1.711,0.503-1.947,1.326
			H40.733z"/>
		<path style="fill:#D03C27;" d="M49.959,191.322c-0.621-0.437-1.208-0.603-1.964-0.603c-0.789,0-1.191,0.285-1.191,0.688
			c0,0.451,0.42,0.703,1.226,0.72c1.628,0.052,3.591,0.386,3.608,2.669c0.017,1.343-0.99,2.787-3.625,2.787
			c-1.226,0-2.484-0.236-3.894-1.411l1.04-1.711c1.024,0.84,2.014,1.023,2.888,1.04c0.704,0.018,1.258-0.269,1.241-0.705
			c0-0.386-0.286-0.703-1.41-0.737c-1.544-0.068-3.474-0.706-3.474-2.651c0-1.88,1.778-2.671,3.574-2.671
			c1.277,0,2.3,0.32,3.172,1.074L49.959,191.322z"/>
		<path style="fill:#D03C27;" d="M55.896,186.774c0,1.814-2.752,1.814-2.752,0C53.144,184.963,55.896,184.963,55.896,186.774z
			 M53.312,188.957v8.308h2.417v-8.308H53.312z"/>
		<path style="fill:#D03C27;" d="M59.906,198.404c0.084,1.277,0.974,1.68,2.083,1.68c1.074,0,2.047-0.503,2.047-1.528
			c0-0.806-0.52-1.426-2.014-1.426c-2.718,0-4.481-1.61-4.481-4.179c0-2.819,2.166-4.229,4.481-4.229
			c0.587,0,1.41,0.083,1.947,0.452L64.874,188l1.746,1.343l-1.057,1.26c0.588,0.703,0.89,1.56,0.857,2.383
			c-0.034,1.174-0.571,2.282-1.78,2.902c1.846,0.822,1.846,2.183,1.846,2.668c0,2.469-2.214,3.659-4.497,3.659
			c-2.871,0-4.365-1.425-4.331-3.811H59.906z M59.874,192.951c0,1.191,0.922,1.979,2.148,1.979c1.091,0,2.081-0.654,2.081-1.979
			c0-1.157-0.873-2.08-2.081-2.08C60.796,190.871,59.874,191.608,59.874,192.951z"/>
		<path style="fill:#D03C27;" d="M74.385,197.265v-4.38c0-1.276-0.554-1.931-1.713-1.931c-1.124-0.018-1.879,0.957-1.879,2.031
			v4.279H68.41v-8.29h2.181l0.084,1.057c0.738-0.957,1.678-1.276,2.685-1.26c1.863,0,3.458,0.874,3.458,4.097v4.396H74.385z"/>
		<path style="fill:#D03C27;" d="M92.285,193.739c0,0.521,0.403,1.191,1.175,1.025v2.583c-1.208,0.168-2.367-0.166-2.719-1.526
			c-0.688,1.191-2.014,1.646-3.323,1.629c-2.148,0-4.414-0.774-4.465-3.525c-0.017-1.208,0.723-2.165,1.914-2.702
			c-1.041-0.337-1.578-1.56-1.578-2.316c0-2.786,2.635-3.608,4.565-3.608c2.232,0,4.264,0.874,4.448,3.439h-2.4
			c-0.134-0.905-1.192-1.325-2.115-1.309c-1.007,0.018-1.896,0.537-1.896,1.478c0,1.108,1.058,1.325,1.864,1.325
			c1.863,0,3.608,0,5.471,0v1.997h-0.94V193.739z M85.539,193.571c0,1.311,1.342,1.562,2.215,1.562c0.621,0,2.215-0.386,2.215-1.68
			v-1.226c-0.789,0-1.561,0-2.35,0C86.21,192.229,85.539,192.917,85.539,193.571z"/>
		<path style="fill:#D03C27;" d="M110.369,197.265h-2.904l-3.004-3.859h-1.893v3.859h-2.623v-11.75c1.914,0,3.677,0,5.576,0
			c2.834,0,4.346,1.897,4.346,3.963c-0.018,1.527-0.469,2.888-2.721,3.693l3.223,3.891V197.265z M102.568,187.766v3.423h2.984
			c1.209,0,1.729-0.906,1.729-1.646c-0.018-0.806-0.537-1.777-1.76-1.777H102.568z"/>
		<path style="fill:#D03C27;" d="M114.039,193.908c0.119,0.806,0.891,1.46,2.248,1.46c0.654,0,1.562-0.151,2.148-0.654l1.361,1.511
			c-0.891,0.871-2.318,1.226-3.559,1.226c-3.006,0-4.648-1.763-4.648-4.416c0-2.518,1.695-4.279,4.395-4.279
			c2.822,0,4.668,1.762,4.145,5.153H114.039z M117.967,192.146c-0.049-0.906-0.975-1.326-1.982-1.326
			c-0.971,0-1.709,0.503-1.945,1.326H117.967z"/>
		<path style="fill:#D03C27;" d="M127.195,191.322c-0.623-0.437-1.211-0.603-1.967-0.603c-0.787,0-1.191,0.285-1.191,0.688
			c0,0.451,0.42,0.703,1.227,0.72c1.629,0.052,3.59,0.386,3.607,2.669c0.018,1.343-0.988,2.787-3.625,2.787
			c-1.225,0-2.484-0.236-3.893-1.411l1.041-1.711c1.021,0.84,2.012,1.023,2.887,1.04c0.703,0.018,1.26-0.269,1.24-0.705
			c0-0.386-0.283-0.703-1.41-0.737c-1.545-0.068-3.473-0.706-3.473-2.651c0-1.88,1.777-2.671,3.574-2.671
			c1.273,0,2.299,0.32,3.172,1.074L127.195,191.322z"/>
		<path style="fill:#D03C27;" d="M132.525,193.908c0.117,0.806,0.889,1.46,2.246,1.46c0.654,0,1.562-0.151,2.148-0.654l1.363,1.511
			c-0.889,0.871-2.32,1.226-3.561,1.226c-3.002,0-4.648-1.763-4.648-4.416c0-2.518,1.695-4.279,4.395-4.279
			c2.822,0,4.668,1.762,4.15,5.153H132.525z M136.451,192.146c-0.049-0.906-0.971-1.326-1.982-1.326
			c-0.971,0-1.709,0.503-1.943,1.326H136.451z"/>
		<path style="fill:#D03C27;" d="M146.871,188.975h2.266c0,2.751,0,5.539,0,8.29h-2.184l-0.137-1.04
			c-0.551,0.871-1.742,1.208-2.549,1.226c-2.484,0.017-4.281-1.594-4.281-4.331c0-2.754,1.898-4.364,4.35-4.33
			c1.041,0,2.012,0.402,2.451,1.142L146.871,188.975z M142.402,193.119c0,1.377,0.977,2.183,2.184,2.183
			c1.361,0,2.201-1.057,2.201-2.1c0-1.191-0.756-2.282-2.201-2.282C143.379,190.92,142.402,191.742,142.402,193.119z"/>
		<path style="fill:#D03C27;" d="M153.662,188.991l0.186,0.906c0.551-0.771,1.289-1.108,2.217-1.108
			c0.785,0,1.439,0.234,2.025,0.754l-1.006,1.914c-0.4-0.286-0.82-0.42-1.322-0.42c-1.041,0-1.934,0.671-1.934,1.914v4.313h-2.418
			v-8.273H153.662z"/>
		<path style="fill:#D03C27;" d="M166.547,196.173c-0.992,0.975-2.184,1.277-3.238,1.277c-2.416,0-4.529-1.326-4.529-4.313
			c0-2.788,2.094-4.348,4.51-4.348c1.211,0,2.168,0.269,3.008,1.142l-1.342,1.526c-0.504-0.386-1.061-0.486-1.562-0.486
			c-1.211,0-2.182,0.789-2.182,2.166c0,1.325,1.006,2.08,2.133,2.08c0.537,0,1.273-0.218,1.674-0.62L166.547,196.173z"/>
		<path style="fill:#D03C27;" d="M170.457,185.515v4.482c0.684-0.889,1.676-1.157,2.516-1.157c1.947,0,3.305,1.023,3.305,3.977
			v4.448h-2.416v-4.431c0-1.157-0.621-1.797-1.578-1.797c-1.006,0-1.846,0.705-1.846,2.031v4.196h-2.416v-11.75H170.457z"/>
	</g>
</g>
</svg>
